<!-- by TradingView --><svg xmlns="http://www.w3.org/2000/svg" width="56" height="56" viewBox="0 0 56 56"><path fill="url(#anhreynul)" d="M0 0h56v56H0z"/><path fill-rule="evenodd" d="M34 38V18.82c.07-1.6 1.18-4.82 5.06-4.82.85.03 2.83.46 3.94 1.9l-.86.66A3.55 3.55 0 0 0 39.31 15C37.44 15 36 16.42 36 18.82V24h5v1h-5v13h-2zm-16.38-1a6.7 6.7 0 0 0 4.98-2.14l.75.7c-1.78 1.82-4.56 2.38-5.73 2.44-7.11 0-7.62-6.37-7.62-7.78 0-1.41.87-7.22 7.32-7.22 5.17 0 6.6 4.6 6.68 7H12c0 3.66 2.3 7 5.62 7zM22 29H12c.15-1.73 1.52-5 5.23-5 3.7 0 4.74 3.27 4.77 5zm4 8a1 1 0 1 1-2 0 1 1 0 0 1 2 0zm6 1a1 1 0 1 0 0-2 1 1 0 0 0 0 2zm8-1a1 1 0 1 1-2 0 1 1 0 0 1 2 0zM28.86 14c-1.03 0-1.86.82-1.86 1.84V38h2V14h-.14z" fill="#fff"/><defs><linearGradient id="anhreynul" x1="10.42" y1="9.71" x2="68.15" y2="76.02" gradientUnits="userSpaceOnUse"><stop stop-color="#1A1E21"/><stop offset="1" stop-color="#06060A"/></linearGradient></defs></svg>
